<svg width="176" height="66" viewBox="0 0 176 66" fill="none" xmlns="http://www.w3.org/2000/svg">
<g filter="url(#filter0_d)">
<path d="M13.5688 10.3127C10.1723 11.7376 6.43853 15.7632 5.25927 20.8162C3.76582 27.2186 9.98074 29.926 10.4905 29.0382C11.0905 27.9952 9.37685 27.6424 9.02412 24.3206C8.56824 20.0302 10.5583 15.2361 13.0629 13.1326C13.5285 12.7418 13.5064 13.2857 13.5064 14.2918C13.5064 16.091 13.4072 32.2425 13.4072 35.6134C13.4072 40.1745 13.2192 41.6148 12.8816 43.0381C12.5396 44.4804 11.9897 45.4549 12.4064 45.8303C12.8719 46.2502 14.8596 45.2514 16.0103 43.6417C17.3902 41.7112 17.8732 39.3927 17.9599 36.8749C18.0646 33.8397 18.0602 29.0235 18.0646 26.2764C18.0688 23.7569 18.107 16.3792 18.0206 11.944C17.9994 10.8561 14.9892 9.71479 13.5686 10.3113L13.5688 10.3127ZM134.176 31.6585C134.067 34.0298 133.543 35.8832 132.893 37.1906C131.635 39.7215 129.024 40.5074 127.915 36.8691C127.311 34.8858 127.283 31.5736 127.717 28.8061C128.159 25.9867 129.394 23.8575 131.438 24.0495C133.455 24.2393 134.398 26.8434 134.176 31.6584V31.6585ZM100.184 46.3703C100.157 50.3102 99.538 53.7648 98.2113 54.7681C96.3296 56.1908 93.8004 55.1236 94.3241 52.2486C94.7875 49.7045 96.979 47.1063 100.189 43.9317C100.189 43.9317 100.196 44.6556 100.184 46.3703H100.184ZM99.6701 31.6356C99.5551 33.7953 98.9964 35.965 98.387 37.1908C97.129 39.7217 94.499 40.513 93.4091 36.8694C92.6639 34.3799 92.8424 31.1579 93.2111 29.1277C93.6895 26.4937 94.8492 24.0501 96.932 24.0501C98.957 24.0501 99.9556 26.2768 99.6701 31.6358V31.6356ZM79.9784 31.6026C79.8549 33.8899 79.4097 35.802 78.6953 37.1908C77.4026 39.7043 74.8452 40.5015 73.7174 36.8694C72.9043 34.2503 73.1811 30.6792 73.5193 28.7501C74.0213 25.8873 75.2781 23.8577 77.2403 24.0501C79.2558 24.2474 80.2356 26.8436 79.9784 31.6027V31.6026ZM170.221 34.2743C169.728 34.2743 169.504 34.7833 169.318 35.6402C168.672 38.6193 167.994 39.292 167.12 39.292C166.143 39.292 165.265 37.8169 165.039 34.8638C164.862 32.5418 164.89 28.2669 165.117 24.0145C165.163 23.1408 164.923 22.2764 162.585 21.425C161.579 21.0589 160.116 20.5197 159.388 22.2814C157.331 27.2585 156.526 31.21 156.336 32.8152C156.326 32.8983 156.225 32.9153 156.207 32.7211C156.086 31.4355 155.816 29.0992 155.783 24.1906C155.776 23.2329 155.574 22.4177 154.519 21.7503C153.835 21.3173 151.757 20.5513 151.009 21.4625C150.36 22.2078 149.61 24.2133 148.829 26.5906C148.195 28.5228 147.754 29.8299 147.754 29.8299C147.754 29.8299 147.762 24.6164 147.77 22.6389C147.773 21.8928 147.263 21.6442 147.109 21.5992C146.416 21.3976 145.05 21.0608 144.471 21.0608C143.756 21.0608 143.581 21.4614 143.581 22.0451C143.581 22.1215 143.468 28.9091 143.468 33.6553C143.468 33.8615 143.468 34.0864 143.47 34.3253C143.074 36.5067 141.792 39.4679 140.397 39.4679C139 39.4679 138.341 38.23 138.341 32.5718C138.341 29.2709 138.44 27.8356 138.489 25.4483C138.517 24.0732 138.572 23.0172 138.569 22.7776C138.558 22.0427 137.29 21.6723 136.701 21.5355C136.108 21.3974 135.593 21.344 135.191 21.3669C134.621 21.3991 134.219 21.7734 134.219 22.2882C134.219 22.5642 134.222 23.0891 134.222 23.0891C133.489 21.9344 132.309 21.1306 131.525 20.8977C129.411 20.2687 127.206 20.8261 125.543 23.1589C124.221 25.0124 123.424 27.1117 123.11 30.1278C122.881 32.3329 122.956 34.5689 123.364 36.4599C122.871 38.5937 121.957 39.4679 120.956 39.4679C119.503 39.4679 118.449 37.0905 118.571 32.9788C118.652 30.2744 119.192 28.3765 119.782 25.6308C120.034 24.4603 119.829 23.8475 119.317 23.2602C118.846 22.7216 117.844 22.4464 116.403 22.7849C115.377 23.0262 113.91 23.2857 112.568 23.485C112.568 23.485 112.649 23.1611 112.715 22.59C113.064 19.5951 109.817 19.8381 108.781 20.7947C108.163 21.3658 107.742 22.0394 107.582 23.2504C107.329 25.1722 108.893 26.0787 108.893 26.0787C108.38 28.4328 107.122 31.508 105.823 33.7313C105.128 34.9225 104.596 35.8052 103.909 36.7435C103.906 36.3941 103.905 36.0448 103.903 35.697C103.888 30.7478 103.953 26.8527 103.982 25.4487C104.011 24.0736 104.066 23.0457 104.062 22.806C104.055 22.2685 103.742 22.0656 103.09 21.8086C102.514 21.5813 101.833 21.4239 101.127 21.3691C100.235 21.2994 99.6982 21.7733 99.7122 22.3338C99.7149 22.4396 99.7149 23.0894 99.7149 23.0894C98.9817 21.9346 97.8024 21.1308 97.0179 20.8979C94.9046 20.2692 92.6994 20.8265 91.0361 23.1591C89.7144 25.0126 88.8488 27.6136 88.6036 30.1051C88.3751 32.4272 88.4173 34.4006 88.7287 36.0629C88.3927 37.7275 87.4266 39.4682 86.3342 39.4682C84.9376 39.4682 84.143 38.2301 84.143 32.572C84.143 29.2711 84.2419 27.8358 84.2905 25.4487C84.3187 24.0736 84.3732 23.0174 84.3701 22.778C84.3598 22.0432 83.0919 21.6728 82.502 21.5356C81.8848 21.3926 81.3518 21.34 80.9426 21.3702C80.4027 21.4105 80.0231 21.8951 80.0231 22.2565V23.0894C79.29 21.9346 78.1107 21.1308 77.3261 20.8979C75.2129 20.2692 73.02 20.8355 71.3444 23.1591C70.2517 24.6741 69.3671 26.3538 68.9119 30.072C68.7803 31.1465 68.7222 32.1527 68.7298 33.0932C68.294 35.764 66.3696 38.8422 64.7954 38.8422C63.8742 38.8422 62.9969 37.0514 62.9969 33.2349C62.9969 28.151 63.3108 20.9128 63.3639 20.2151C63.3639 20.2151 65.3529 20.1813 65.7381 20.1768C66.7302 20.1659 67.6287 20.1894 68.9501 20.1216C69.6129 20.0878 70.2514 17.7037 69.5674 17.4087C69.2574 17.2751 67.0662 17.1581 66.1975 17.1397C65.4671 17.1231 63.4337 16.9722 63.4337 16.9722C63.4337 16.9722 63.6161 12.1678 63.6586 11.6603C63.6946 11.2373 63.1486 11.0195 62.8355 10.8873C62.0741 10.5646 61.3928 10.41 60.5853 10.2432C59.4697 10.0125 58.9636 10.2381 58.8648 11.1818C58.7159 12.6141 58.6388 16.809 58.6388 16.809C57.8201 16.809 55.0237 16.6486 54.2047 16.6486C53.4439 16.6486 52.6227 19.9282 53.6746 19.9685C54.8849 20.0155 56.9939 20.0561 58.3922 20.0984C58.3922 20.0984 58.3299 27.4559 58.3299 29.7274C58.3299 29.9691 58.332 30.2018 58.3324 30.4276C57.5629 34.4477 54.8525 36.6192 54.8525 36.6192C55.4345 33.9597 54.2455 31.9626 52.1038 30.272C51.3147 29.649 49.757 28.4696 48.0141 27.1772C48.0141 27.1772 49.0235 26.18 49.9187 24.1739C50.553 22.7529 50.5804 21.1267 49.0235 20.7681C46.451 20.1752 44.33 22.0687 43.6973 24.0902C43.2071 25.6562 43.4686 26.8183 44.4288 28.0254C44.499 28.1136 44.5749 28.2037 44.6534 28.2944C44.0727 29.4162 43.275 30.9265 42.5993 32.0978C40.724 35.3496 39.3074 37.9218 38.2368 37.9218C37.381 37.9218 37.3924 35.3104 37.3924 32.8654C37.3924 30.7576 37.5477 27.5887 37.6717 24.3077C37.7128 23.2227 37.1715 22.6045 36.264 22.0446C35.7127 21.7045 34.5359 21.0357 33.8544 21.0357C32.8343 21.0357 29.8912 21.1748 27.1104 29.237C26.76 30.2532 26.0715 32.1048 26.0715 32.1048L26.1308 22.4097C26.1308 22.1824 26.01 21.9626 25.7334 21.8123C25.2648 21.5573 24.0132 21.0357 22.9003 21.0357C22.3701 21.0357 22.1055 21.2829 22.1055 21.7756L22.0084 36.9437C22.0084 38.0961 22.0384 39.4406 22.1521 40.0287C22.2654 40.6174 22.4489 41.0964 22.6761 41.3814C22.9031 41.6658 23.1656 41.8828 23.5984 41.9723C24.0012 42.0554 26.207 42.3393 26.3217 41.4945C26.459 40.4819 26.4643 39.3868 27.6226 35.3023C29.4257 28.9434 31.7768 25.8407 32.882 24.7388C33.0752 24.5462 33.2959 24.5348 33.2853 24.85C33.2381 26.2441 33.0722 29.7278 32.9605 32.6874C32.6611 40.6076 34.0986 42.0756 36.153 42.0756C37.7247 42.0756 39.9402 40.5104 42.3151 36.5484C43.7958 34.0793 45.2334 31.6583 46.2663 29.9134C46.9861 30.5812 47.7938 31.3 48.6011 32.0679C50.4769 33.8523 51.0928 35.5479 50.6842 37.1564C50.3716 38.3861 49.1946 39.6534 47.0998 38.4217C46.4892 38.0623 46.2286 37.7847 45.6146 37.3795C45.2848 37.1619 44.7812 37.0968 44.4793 37.3248C43.6949 37.9175 43.2464 38.6714 42.9903 39.6048C42.7411 40.5129 43.6486 40.993 44.5893 41.4129C45.3993 41.7743 47.1402 42.1018 48.2505 42.1391C52.5765 42.2841 56.0419 40.0457 58.4543 34.2715C58.8861 39.2582 60.724 42.0801 63.9171 42.0801C66.0519 42.0801 68.1922 39.3144 69.1282 36.5937C69.3969 37.7027 69.7946 38.6672 70.3083 39.4827C72.7687 43.3899 77.5419 42.549 79.9395 39.2311C80.6808 38.2059 80.7936 37.8375 80.7936 37.8375C81.1433 40.9704 83.6605 42.065 85.1017 42.065C86.7159 42.065 88.3825 41.3002 89.5506 38.6645C89.6875 38.9505 89.8369 39.2237 90 39.4826C92.4605 43.3899 97.2336 42.5489 99.6312 39.231C99.7443 39.0754 99.8424 38.9342 99.9281 38.8075L99.9985 40.8653C99.9985 40.8653 98.6307 42.1229 97.7911 42.8944C94.0958 46.2924 91.286 48.8704 91.0793 51.8725C90.8139 55.7005 93.9115 57.1232 96.2549 57.3096C98.7436 57.5076 100.875 56.1297 102.185 54.2014C103.337 52.5041 104.091 48.8511 104.036 45.2431C104.014 43.7983 103.977 41.9613 103.949 39.9922C105.248 38.4805 106.711 36.5698 108.058 34.3334C109.527 31.8961 111.1 28.623 111.906 26.0758C111.906 26.0758 113.273 26.0875 114.732 25.9918C115.199 25.9613 115.333 26.0567 115.247 26.3997C115.143 26.814 113.404 33.5378 114.991 38.0169C116.077 41.0831 118.527 42.0697 119.979 42.0697C121.679 42.0697 123.305 40.783 124.176 38.8724C124.281 39.0854 124.391 39.2915 124.511 39.4818C126.971 43.389 131.728 42.543 134.142 39.2302C134.687 38.4828 134.996 37.8366 134.996 37.8366C135.514 41.0789 138.03 42.0806 139.471 42.0806C140.972 42.0806 142.397 41.4638 143.552 38.7229C143.601 39.9297 143.677 40.9165 143.797 41.2277C143.87 41.4179 144.296 41.6568 144.607 41.7721C145.98 42.2825 147.38 42.0411 147.898 41.9362C148.257 41.8633 148.537 41.5747 148.576 40.8295C148.676 38.8727 148.614 35.585 149.206 33.1416C150.2 29.041 151.126 27.4503 151.566 26.6628C151.812 26.2216 152.09 26.1488 152.1 26.6158C152.121 27.5606 152.167 30.3352 152.552 34.0629C152.835 36.8046 153.213 38.425 153.503 38.9379C154.331 40.4045 155.354 40.474 156.187 40.474C156.717 40.474 157.825 40.3272 157.725 39.3939C157.677 38.939 157.762 36.1275 158.741 32.0876C159.381 29.4494 160.447 27.0656 160.832 26.1942C160.974 25.8728 161.04 26.1261 161.038 26.1755C160.957 27.9923 160.775 33.9351 161.513 37.1852C162.514 41.5882 165.41 42.0809 166.419 42.0809C168.574 42.0809 170.336 40.4384 170.929 36.1167C171.072 35.0766 170.86 34.2735 170.226 34.2735" fill="white"/>
</g>
<defs>
<filter id="filter0_d" x="-4" y="0" width="184" height="71" filterUnits="userSpaceOnUse" color-interpolation-filters="sRGB">
<feFlood flood-opacity="0" result="BackgroundImageFix"/>
<feColorMatrix in="SourceAlpha" type="matrix" values="0 0 0 0 0 0 0 0 0 0 0 0 0 0 0 0 0 0 127 0"/>
<feOffset dy="4"/>
<feGaussianBlur stdDeviation="2"/>
<feColorMatrix type="matrix" values="0 0 0 0 0 0 0 0 0 0 0 0 0 0 0 0 0 0 0.25 0"/>
<feBlend mode="normal" in2="BackgroundImageFix" result="effect1_dropShadow"/>
<feBlend mode="normal" in="SourceGraphic" in2="effect1_dropShadow" result="shape"/>
</filter>
</defs>
</svg>
